<?xml version="1.0" encoding="UTF-8" standalone="no"?>
<svg
   xmlns:dc="http://purl.org/dc/elements/1.1/"
   xmlns:cc="http://creativecommons.org/ns#"
   xmlns:rdf="http://www.w3.org/1999/02/22-rdf-syntax-ns#"
   xmlns:svg="http://www.w3.org/2000/svg"
   xmlns="http://www.w3.org/2000/svg"
   viewBox="0 0 573.33331 296"
   height="296"
   width="573.33331"
   xml:space="preserve"
   id="svg2"
   version="1.1"><metadata
     id="metadata8"><rdf:RDF><cc:Work
         rdf:about=""><dc:format>image/svg+xml</dc:format><dc:type
           rdf:resource="http://purl.org/dc/dcmitype/StillImage" /></cc:Work></rdf:RDF></metadata><defs
     id="defs6" /><g
     transform="matrix(1.3333333,0,0,-1.3333333,0,296)"
     id="g10"><g
       transform="scale(0.1)"
       id="g12"><path
         id="path14"
         style="fill:#3f3f3f;fill-opacity:1;fill-rule:evenodd;stroke:none"
         d="m 1304.3,1593.2 h -138.25 c 60.55,124.26 140.94,233.28 241.06,327.03 100.19,93.79 214.57,166.88 343.16,219.42 129.14,52.97 267.03,79.8 413.83,80.35 147.35,-0.55 285.51,-27.38 414.65,-80.35 128.01,-52.54 242.15,-125.39 342.34,-218.6 99.61,-94.29 179.96,-203.59 241.06,-327.85 h -136.6 c -57.31,100.71 -129.65,188.87 -216.96,264.38 -86.83,76.6 -184.84,135.54 -294.14,176.8 -109.84,42.3 -226.6,64.25 -350.35,65.85 -123.75,-1.09 -240,-22.73 -348.75,-65.03 -109.84,-41.84 -208.08,-100.47 -294.92,-176.06 -87.34,-76.02 -159.34,-164.73 -216.13,-265.94 M 2164.1,124.262 c -118.4,0.539 -230.35,20.078 -335.86,58.707 -106.09,39.101 -201.72,93.941 -286.91,164.73 -85.71,69.602 -157.78,151.832 -216.13,246.641 -59.46,93.781 -101.29,196.359 -125.4,307.808 h -123.71 c 25.16,-128.089 70.43,-246.718 135.79,-356.019 64.84,-108.75 145.93,-203.859 243.43,-285.27 C 1551.25,180 1659.73,117.031 1780.78,72.0313 1900.82,26.5195 2028.55,3.48047 2164.1,2.89063 2299.65,3.48047 2427.66,26.5195 2548.16,72.0313 2668.2,117.031 2776.95,180 2874.45,260.859 c 97,81.411 177.85,176.52 242.7,285.27 65.35,109.301 110.62,227.93 135.78,356.019 H 3130 C 3104.84,790.699 3062.77,687.578 3003.83,592.77 2945.43,498.98 2873.36,416.762 2787.7,346.051 2702.5,276.449 2606.88,222.07 2500.78,182.969 2395.82,144.34 2283.55,124.801 2164.1,124.262 m 389.73,1103.318 c -0.55,-85.74 -16.06,-167.66 -46.56,-245.9 -31.1,-77.7 -75.04,-147.34 -131.84,-208.91 -56.76,-61.09 -124.02,-110.622 -201.68,-148.668 l -14.49,-6.481 -14.42,6.481 c -26.25,13.359 -51.75,27.847 -76.36,43.359 l -2.43,2.418 c -2.14,1.062 -4.29,2.191 -6.4,3.242 -76.6,49.809 -138.24,112.777 -184.85,188.828 -34.84,54.071 -61.87,111.961 -81.17,173.521 -18.2,61.68 -27.85,125.62 -28.94,192.11 v 327.03 h 789.14 v -327.03" /><path
         id="path16"
         style="fill:#234266;fill-opacity:1;fill-rule:evenodd;stroke:none"
         d="M 910.551,1381.02 H 519.18 c -101.211,-1.57 -184.84,7.3 -250.7,26.56 -65.359,18.71 -116.531,42.58 -153.48,71.52 -36.4102,29.42 -62.6602,58.95 -78.7109,88.36 -16.6407,28.95 -27.07035,53.87 -31.41019,74.73 -3.70703,19.84 -5.34766,30.31 -4.757816,31.36 28.859406,-32.1 63.707006,-56.79 104.448906,-73.94 41.758,-16.64 82.5,-28.36 122.11,-35.35 40.199,-6.45 73.711,-10.16 100.429,-11.21 27.301,-1.1 41.25,-1.41 41.84,-0.82 H 1720.51 V 1381.02 H 910.551 M 2161.72,185.352 l 89.14,130.199 -37.74,276.398 c -7.53,-3.75 -15,-7.539 -22.53,-11.25 l -29.69,-14.488 -30.59,14.488 c -6.4,3.211 -12.81,6.68 -19.26,10.43 l -38.55,-275.578 89.22,-130.199 m 261.17,74.687 44.18,169.57 -122.97,251.563 c -26.76,-22.543 -55.47,-43.442 -85.98,-62.731 l 47.43,-294.101 117.34,-64.301 m -522.34,0 118.08,64.301 46.64,293.281 c -31.05,18.277 -60,38.859 -86.79,61.91 l -122.11,-249.922 44.18,-169.57 m -215.39,204.922 125.35,-12.07 135.82,257.148 c -28.4,26.289 -54.14,54.691 -77.15,85.191 L 1693.2,647.379 1685.16,464.961 m 954.68,0 -8.86,182.418 -178.4,148.672 c -22.5,-29.449 -47.66,-57.571 -75.55,-84.371 l 136.6,-258.789 126.21,12.07 m -916.09,698.359 c -2.19,23.01 -3.24,46.02 -3.24,69.02 v 90.04 H 550.551 c -1.063,0 -12.852,-0.54 -35.391,-1.64 -23.051,0 -51.68,0.82 -85.941,2.46 -34.84,2.15 -69.688,6.64 -104.489,13.64 -34.851,5.89 -64.851,15.82 -90,29.76 -0.511,-0.58 4.571,-11.25 15.231,-32.15 10.738,-20.35 29.527,-43.63 56.25,-69.96 26.328,-26.21 63.238,-49.26 110.937,-69.06 48.204,-20.9 109.301,-31.64 183.204,-32.11 H 1723.75 m 57.03,-217.808 c -22.5,50.859 -38.55,104.218 -48.24,159.918 H 766.719 c -0.59,0 -11.559,-0.82 -32.969,-2.38 -22.5,-0.59 -49.531,-0.59 -81.172,0 -32.656,1.05 -64.808,3.71 -96.449,8 -32.149,3.72 -58.359,10.43 -78.707,20.12 -1.051,-1.09 2.379,-10.74 10.43,-28.94 8.597,-18.79 24.648,-39.93 48.199,-63.48 23.597,-24.69 57.898,-46.09 102.898,-64.301 45.5,-18.75 105.231,-28.429 179.172,-28.937 h 962.659 m 819.65,606.718 v -171.21 h 1174.84 c 101.76,-1.57 185.63,7.3 251.49,26.56 64.84,18.71 115.43,42.58 151.91,71.52 36.92,29.42 63.71,58.95 80.35,88.36 16.1,28.95 26.25,53.87 30.51,74.73 3.79,19.84 5.35,30.31 4.85,31.36 -28.95,-32.1 -63.79,-56.79 -104.46,-73.94 -41.25,-16.64 -81.99,-28.36 -122.19,-35.35 -40.15,-6.45 -73.63,-10.16 -100.43,-11.21 -27.3,-1.1 -41.25,-1.41 -41.75,-0.82 H 2600.43 m 0,-229.85 v -90.04 c -0.51,-23 -1.84,-46.01 -4.02,-69.02 H 3694.1 c 74.45,0.47 135.51,11.21 183.24,32.11 47.66,19.8 84.89,42.85 111.68,69.06 26.25,26.33 44.69,49.61 55.43,69.96 10.75,19.85 15.82,30.51 15.24,32.15 -25.16,-13.94 -55.16,-23.87 -89.96,-29.76 -34.85,-7 -69.65,-11.49 -104.46,-13.64 -33.75,-1.64 -62.15,-1.87 -85.19,-0.82 H 2600.43 m -12.07,-216.95 c -10.16,-55.7 -26.48,-109.059 -48.98,-159.918 h 936.91 c 73.98,0.508 133.67,10.187 179.26,28.937 45,18.211 79.29,39.611 102.81,64.301 24.1,23.55 40.19,44.69 48.24,63.48 8.01,18.2 11.8,27.85 11.21,28.94 -20.82,-9.69 -47.15,-16.64 -78.71,-20.9 -32.15,-4.29 -64.53,-6.72 -97.26,-7.22 -31.57,-0.59 -58.64,-0.59 -81.18,0 -21.4,1.05 -32.38,1.79 -32.89,2.38 h -939.41 m -247.46,496.56 h -362.42 c 12.3,13.44 19.8,30.59 22.54,51.49 2.1,21.4 -4.03,46.83 -18.56,76.32 l -114.88,30.55 -21.72,-27.34 c -1.06,1.09 -5.9,6.68 -14.41,16.91 -8.64,11.21 -13.44,24.1 -14.54,38.56 -1.05,15 8.64,28.12 28.95,39.33 20.9,11.8 60.04,18.79 117.34,20.9 l -10.43,28.13 c 1.1,0.58 12.58,4.29 34.53,11.25 21.41,6.48 47.66,11.56 78.75,15.27 30.55,4.3 59.18,2.69 85.98,-4.81 26.25,-6.95 44.77,-23.59 55.43,-49.84 0,-1.6 3.79,-15.23 11.25,-40.98 8.05,-25.66 21.72,-57.3 41.02,-94.8 19.25,-37.54 46.32,-74.45 81.17,-110.94 m -229.02,244.34 h -123.76 c 3.21,-12.35 8.87,-21.13 16.88,-26.56 9.1,-4.26 17.15,-7.19 24.14,-8.83 7.46,-0.51 11.72,-0.51 12.77,0 l 20.12,22.54 49.85,12.85" /><path
         id="path18"
         style="fill:#ffffff;fill-opacity:1;fill-rule:evenodd;stroke:none"
         d="m 2063.95,1364.96 c -2.78,0.7 -5.47,1.64 -8.09,2.89 -2.62,1.21 -5.31,2.15 -8.13,2.85 -2.07,0.71 -3.55,0.63 -4.45,-0.27 -0.86,-0.86 -2.15,-1.99 -3.9,-3.4 -1.76,-2.07 -3.33,-3.91 -4.73,-5.47 -1.37,-1.56 -3.13,-3.59 -5.24,-6.01 -7.3,-9.42 -13.39,-18.75 -18.28,-28.01 -4.88,-9.26 -9.76,-18.4 -14.65,-27.46 1.37,-1.76 3.29,-3.05 5.75,-3.95 2.42,-0.86 4.53,-1.99 6.29,-3.4 5.54,2.82 10,6.84 13.32,12.04 3.32,5.23 6.91,10.31 10.74,15.19 0.7,3.13 2.07,5.94 4.18,8.36 2.07,2.46 3.47,5.23 4.18,8.4 0.35,1.37 0.43,2.77 0.27,4.18 -0.19,1.37 0.43,2.62 1.84,3.63 0.66,-2.77 1.36,-4.88 2.07,-6.25 0.7,-1.4 1.4,-3.51 2.11,-6.29 0.7,-6.64 0.5,-13.08 -0.55,-19.37 -0.35,-1.02 -0.78,-2.07 -1.29,-3.13 -0.51,-1.05 -0.98,-2.26 -1.33,-3.67 -1.36,-3.83 -2.34,-6.09 -2.85,-6.8 -0.55,-0.7 -1.13,-1.56 -1.83,-2.61 -1.06,-1.06 -2.19,-2.19 -3.4,-3.4 -1.21,-1.21 -2.19,-2.54 -2.89,-3.91 -2.78,-2.81 -4.69,-5.78 -5.75,-8.9 -1.75,-0.71 -2.96,-1.65 -3.67,-2.9 -0.7,-1.21 -1.91,-2.69 -3.67,-4.45 -1.72,-1.37 -3.12,-2.85 -4.18,-4.41 -1.05,-1.6 -2.77,-1.68 -5.23,-0.28 -4.89,-1.05 -9.85,-1.05 -14.93,0 -5.04,1.06 -10,1.92 -14.88,2.62 -2.11,0.7 -3.51,1.92 -4.18,3.67 -0.7,1.72 -1.95,2.78 -3.67,3.13 -0.7,1.05 -1.13,2.34 -1.33,3.9 -0.15,1.61 -0.94,2.74 -2.34,3.4 0,2.11 -0.16,3.95 -0.51,5.51 -0.35,1.56 -0.35,3.24 0,4.96 0.35,1.41 0.78,2.62 1.29,3.67 0.51,1.06 1.13,2.27 1.84,3.68 0.7,1.75 1.05,3.47 1.05,5.23 0,1.72 0.51,3.32 1.56,4.69 2.78,3.86 5.59,7.5 8.36,11.01 2.81,3.48 5.43,7.66 7.85,12.54 2.82,2.81 5.24,5.86 7.35,9.18 2.07,3.28 4.53,6.68 7.3,10.2 2.46,1.36 4.18,3.12 5.24,5.23 5.58,5.9 10.54,10.98 14.92,15.16 4.37,4.18 8.63,8.55 12.81,13.08 2.11,2.43 4.61,4.61 7.58,6.53 2.97,1.95 6.37,3.24 10.19,3.94 5.94,2.07 10.24,3.05 12.86,2.89 2.61,-0.19 5.46,0.08 8.63,0.78 4.53,-1.75 7.93,-4.37 10.19,-7.85 2.27,-3.51 4.61,-7.15 7.07,-11.01 1.02,-1.72 1.84,-3.21 2.35,-4.42 0.51,-1.25 1.29,-2.73 2.34,-4.45 1.41,-3.52 2.81,-7.7 4.18,-12.58 1.41,-4.88 1.25,-10.12 -0.51,-15.7 -0.35,-4.53 -1.21,-9.3 -2.61,-14.38 -1.41,-5.04 -2.62,-10.19 -3.68,-15.43 -0.35,-2.11 -0.5,-4.1 -0.5,-6.01 0,-1.92 -0.2,-4.26 -0.55,-7.07 -0.31,-3.13 -1.13,-6.37 -2.34,-9.69 -1.22,-3.32 -2.35,-6.52 -3.4,-9.69 -1.41,-3.83 -2.27,-7.73 -2.62,-11.76 -0.35,-4.02 -0.86,-7.92 -1.56,-11.75 -1.76,-10.47 -3.91,-20.86 -6.53,-31.14 -2.61,-10.31 -5,-20.66 -7.07,-31.13 -1.05,-5.94 -2.61,-11.68 -4.72,-17.26 -2.07,-5.59 -4.03,-11.18 -5.74,-16.76 -1.41,-1.41 -2.35,-3.4 -2.9,-6.02 -0.5,-2.61 -1.13,-5.15 -1.83,-7.58 -2.77,-7.69 -5.04,-15.27 -6.8,-22.77 -1.76,-7.5 -2.42,-15.08 -2.07,-22.73 0,-5.59 -0.35,-11.1 -1.05,-16.49 -0.71,-5.43 -1.41,-11.09 -2.11,-17.03 2.11,0.35 3.47,2.11 4.18,5.24 2.81,2.81 5.08,5.66 6.79,8.63 1.76,2.97 3.52,5.86 5.24,8.63 0.7,1.06 1.4,1.92 2.11,2.62 0.7,0.7 1.4,1.56 2.11,2.62 0.66,1.05 1.29,2.18 1.79,3.39 0.55,1.25 1.14,2.54 1.84,3.95 2.11,2.77 4.53,5.58 7.34,8.36 2.78,2.77 5.39,5.74 7.86,8.9 1.71,2.78 3.32,5.59 4.68,8.36 1.41,2.82 3.17,5.24 5.24,7.35 5.23,8.36 10.66,16.48 16.25,24.29 5.54,7.86 11.33,15.47 17.26,22.78 9.07,12.22 17.78,23.83 26.14,34.8 8.39,10.98 17.1,21.88 26.17,32.7 2.11,4.53 4.88,8.63 8.36,12.3 3.51,3.67 6.79,7.23 9.96,10.71 1.4,1.4 2.61,2.89 3.67,4.45 1.01,1.56 2.27,2.89 3.63,3.94 4.88,5.9 9.69,11.76 14.42,17.5 4.68,5.79 9.33,11.61 13.86,17.54 1.72,2.82 3.48,5.75 5.24,8.91 1.72,3.12 3.98,5.94 6.79,8.36 2.78,2.81 4.89,5.59 6.25,8.36 1.41,2.81 3.17,5.43 5.24,7.85 2.11,2.11 3.51,3.67 4.22,4.73 0.66,0.7 1.36,1.4 2.07,2.07 0.7,0.7 1.4,1.4 2.11,2.11 2.07,3.12 3.83,5.07 5.23,5.74 1.37,0.7 2.42,1.6 3.13,2.62 2.46,1.05 4.61,2.11 6.52,3.16 1.95,1.05 3.75,2.07 5.51,3.12 2.46,0.71 4.45,1.68 6.01,2.9 1.57,1.21 3.6,2.18 6.02,2.85 1.41,1.4 2.97,2.54 4.73,3.4 1.71,0.89 3.47,1.83 5.23,2.89 1.37,0.7 2.62,1.4 3.63,2.11 1.06,0.7 2.11,1.36 3.17,2.07 4.88,-4.54 6.79,-8.99 5.74,-13.32 -1.06,-4.38 -2.42,-8.13 -4.18,-11.25 -1.06,-1.76 -2.46,-3.32 -4.18,-4.73 -1.76,-1.37 -3.32,-2.77 -4.73,-4.18 -2.77,-2.77 -5.31,-5.59 -7.57,-8.36 -2.27,-2.81 -4.61,-5.94 -7.08,-9.41 -2.77,-4.54 -6.17,-9.11 -10.19,-13.64 -4.02,-4.53 -7.77,-8.71 -11.25,-12.54 -0.7,-1.4 -1.48,-2.61 -2.34,-3.67 -0.9,-1.05 -1.68,-2.07 -2.39,-3.12 -1.36,-1.76 -2.42,-3.4 -3.12,-4.96 -0.71,-1.61 -1.92,-2.74 -3.67,-3.44 -0.71,-1.72 -1.72,-3.13 -3.13,-4.18 -1.41,-1.02 -2.46,-2.42 -3.12,-4.18 -3.17,-2.77 -6.14,-6.29 -8.91,-10.47 -2.11,-2.77 -3.32,-4.26 -3.67,-4.45 -0.35,-0.16 -0.71,-0.43 -1.06,-0.78 -2.77,-4.54 -5.58,-8.17 -8.36,-10.98 -1.4,-1.76 -2.61,-4.02 -3.67,-6.8 -1.72,-1.76 -3.12,-3.75 -4.18,-6.01 -1.05,-2.27 -2.42,-4.61 -4.18,-7.07 -0.7,-1.06 -1.4,-2.11 -2.11,-3.13 -0.66,-1.05 -1.36,-2.26 -2.07,-3.67 -1.4,-2.77 -2.69,-5.39 -3.94,-7.85 -1.21,-2.42 -2.7,-5.04 -4.46,-7.85 -1.36,-2.78 -2.57,-5.24 -3.63,-7.31 -1.05,-2.11 -2.46,-4.22 -4.18,-6.29 -3.51,-3.83 -6.99,-8.2 -10.47,-13.08 -3.51,-4.89 -7.14,-9.07 -11.01,-12.54 -0.67,-1.76 -1.64,-3.17 -2.85,-4.22 -1.25,-1.02 -2.39,-2.27 -3.4,-3.63 -2.81,-3.52 -5.35,-7 -7.62,-10.47 -2.26,-3.52 -4.76,-6.99 -7.58,-10.47 -1.72,-2.46 -3.4,-4.73 -4.96,-6.8 -1.56,-2.11 -3.24,-4.37 -4.96,-6.8 -1.76,-1.75 -3.4,-3.67 -5,-5.78 -1.56,-2.07 -3.2,-4.33 -4.96,-6.79 -1.37,-1.76 -2.7,-3.4 -3.91,-4.96 -1.21,-1.57 -2.34,-3.4 -3.39,-5.51 -2.82,-2.07 -5,-4.81 -6.57,-8.09 -1.56,-3.32 -3.9,-6.21 -7.07,-8.63 -2.07,-3.52 -4.18,-6.91 -6.25,-10.24 -2.11,-3.28 -4.53,-6.87 -7.34,-10.7 -0.7,-1.4 -1.29,-2.62 -1.84,-3.67 -0.51,-1.05 -0.93,-2.62 -1.29,-4.73 -0.7,-1.72 -1.56,-3.12 -2.61,-4.18 -1.06,-1.01 -1.76,-2.42 -2.11,-4.18 -6.96,-8.36 -12.74,-15.93 -17.27,-22.73 -4.53,-6.84 -9.57,-13.01 -15.15,-18.59 -2.11,-3.13 -4.11,-5.75 -6.02,-7.86 -1.91,-2.07 -3.4,-4.53 -4.45,-7.3 -2.11,-3.16 -4.73,-6.21 -7.86,-9.18 -3.12,-2.969 -6.44,-5.66 -9.92,-8.09 -2.11,-1.75 -4.57,-2.461 -7.34,-2.109 -2.77,0.359 -5.04,1.918 -6.8,4.73 -4.53,2.418 -7.22,4.61 -8.12,6.519 -0.86,1.92 -2.35,4.26 -4.46,7.07 -4.18,0.71 -5.74,3.48 -4.68,8.36 1.05,4.89 1.91,9.61 2.61,14.14 0.71,5.24 1.29,10.83 1.84,16.72 0.51,5.94 0.94,11.88 1.29,17.82 0.35,7.65 0.7,15.35 1.05,23 0.36,7.7 0.86,15.55 1.57,23.56 0.35,1.05 0.43,1.99 0.27,2.89 -0.2,0.86 -0.27,1.8 -0.27,2.85 0,1.76 0.19,3.52 0.54,5.24 0.32,1.75 0.51,3.67 0.51,5.78 0,1.72 0,3.28 0,4.68 0,1.41 0.16,2.97 0.51,4.73 0.35,6.6 1.33,12.73 2.89,18.28 1.56,5.59 3.05,11.53 4.45,17.81 2.42,6.29 4.46,12.82 6.02,19.61 1.56,6.8 3.24,13.52 4.96,20.16 2.81,8.01 5.08,16.91 6.8,26.68 0.35,1.05 0.43,2.19 0.27,3.4 -0.16,1.21 -0.08,2.34 0.27,3.4 0.35,1.75 0.78,3.32 1.29,4.72 0.55,1.37 0.63,2.97 0.28,4.69 1.4,6.64 2.69,12.03 3.9,16.21 1.25,4.22 2.74,8.75 4.45,13.63 0.71,1.72 1.14,3.21 1.33,4.46 0.16,1.21 0.43,2.5 0.78,3.9 1.37,3.13 2.86,6.72 4.46,10.75 1.56,3.98 3.04,7.93 4.41,11.75 1.06,2.78 2.19,5.75 3.44,8.91 1.21,3.13 2.15,6.09 2.85,8.87 1.05,7.34 1.56,13.28 1.56,17.81 0,4.53 -0.86,8.55 -2.61,12.03 z" /></g></g></svg>